# xmcd
#
# Track frame offsets: 
#        150
#        34729
#        59632
#        74561
#        100665
#        114244
#        132772
#        153925
#        201178
#        234256
#        268085
#        269448
#
# Disc length: 3836 seconds
#
# Revision: 0
# Processed by: cddbd v1.5.2PL0 Copyright (c) Steve Scherf et al.
# Submitted via: ExactAudioCopy v1.3
#
DISCID=a80efa0c
DTITLE=Kid Andersen - The Dreamer
DYEAR=2007
DGENRE=Blues
TTITLE0=The Dreamer
TTITLE1=Dig The Pain
TTITLE2=Rocket Fuel
TTITLE3=Jezebel
TTITLE4=Twist Of The Century
TTITLE5=My Baby Lee
TTITLE6=Soul City
TTITLE7=The Nightmare (Nowhere To Turn)
TTITLE8=Serve Me Right To Suffer
TTITLE9=A Better Day
TTITLE10=Conclusion
TTITLE11=Take It Slow
EXTD=
EXTT0=
EXTT1=
EXTT2=
EXTT3=
EXTT4=
EXTT5=
EXTT6=
EXTT7=
EXTT8=
EXTT9=
EXTT10=
EXTT11=
PLAYORDER=
